<svg xmlns="http://www.w3.org/2000/svg" viewBox="0 0 221.14 200.11"><defs><style>.cls-1{fill:#39b54a;}.cls-2{fill:#fff;}</style></defs><g id="Layer_2" data-name="Layer 2"><g id="Layer_1-2" data-name="Layer 1"><path class="cls-1" d="M52.81,41.35c11.87,1.13,23.44,2.26,35,3.34,11,1,21.92,2,32.88,3,9.24.86,18.47,1.8,27.7,2.66S166.9,52,176.14,52.86s18.62,1.77,27.94,2.66c1.95.19,3.92.33,5.86.62a13,13,0,0,1,10.93,15.68c-3.29,16.53-6.59,29.06-9.85,45.6-1.33,6.72-6.82,15.24-14,15.28-10.16.05-20.32,0-30.48,0H71.77l2.82,9.4S78.31,142,79,142q57,0,113.9,0a17,17,0,0,1,4.89.49c4.13,1.28,6.44,3.51,5.64,7.92a8.62,8.62,0,0,1-8.73,6.8l-109.87,0c-5.2,0-10.4,0-15.6,0s-8.23-.4-9.3-5.51c-3.24-15.5-6.41-25-9.63-40.52Q43.11,76.37,35.87,41.61C34.24,33.78,32.55,33,31,25.12a2.71,2.71,0,0,0-2.34-2.43c-7.31-2.1-14.59-4.28-21.87-6.46C1.67,14.68-1,10.15.35,5.34,1.89-.15,7.43-.73,14.08.6,21.59,2.11,28.59,5.11,36,7.18c5.79,1.62,9.66,2.91,10.7,8,1.84,8.91,3.72,14.8,5.58,23.7C52.42,39.67,52.62,40.5,52.81,41.35Z"/><g id="gwMuF3"><path class="cls-2" d="M131.13,121.83a27.34,27.34,0,0,1-17.27-48.5c2.18-1.79,4.8-1.77,6.4,0s1.35,4.39-.94,6.43c-8.63,7.69-9.6,19-2,27.35,5.22,5.75,11.92,7.65,19.37,5.4s11.88-7.38,13.23-15c1.27-7.18-1.3-13.09-6.76-17.79-1.35-1.16-2.21-2.49-1.88-4.3.61-3.31,4.2-4.58,7-2.51,10.75,8.07,13.66,24.36,6.39,35.81A27.24,27.24,0,0,1,131.13,121.83Z"/><path class="cls-2" d="M135.39,82.53c0,4.52,0-2,0,2.56,0,3-1.54,4.7-4.17,4.69s-4.14-1.68-4.15-4.71c0-9.24,0-7.46,0-16.7a3.91,3.91,0,0,1,3.33-4.18,4.06,4.06,0,0,1,4.64,2.43,7,7,0,0,1,.32,2.33C135.4,73.47,135.39,78,135.39,82.53Z"/></g><circle class="cls-1" cx="96.09" cy="182.61" r="17.5"/><circle class="cls-1" cx="168.09" cy="182.61" r="17.5"/></g></g></svg>