<svg xmlns="http://www.w3.org/2000/svg" viewBox="0 0 76 52.65"><defs><style>.cls-1{fill:#1e974a;}</style></defs><g id="Layer_2" data-name="Layer 2"><g id="Layer_1-2" data-name="Layer 1"><path class="cls-1" d="M67.94,0H8.06A8.06,8.06,0,0,0,0,8.06V44.6a8.06,8.06,0,0,0,8.06,8H67.94a8.06,8.06,0,0,0,8.06-8V8.06A8.06,8.06,0,0,0,67.94,0ZM8.06,4H67.94A4.06,4.06,0,0,1,72,8.06v4.51H4V8.06A4.06,4.06,0,0,1,8.06,4ZM67.94,48.65H8.06A4.06,4.06,0,0,1,4,44.6V22.4H72V44.6A4.06,4.06,0,0,1,67.94,48.65Z"/><rect class="cls-1" x="10.73" y="35.42" width="19.64" height="6.63"/></g></g></svg>