<svg xmlns="http://www.w3.org/2000/svg" viewBox="0 0 205.2 118.49"><defs><style>.cls-1{fill:#fff;}.cls-2{fill:#83cd07;}</style></defs><g id="Layer_2" data-name="Layer 2"><g id="Layer_1-2" data-name="Layer 1"><path class="cls-1" d="M29,47.78c10.2,0,20.41,0,30.61,0a35.27,35.27,0,0,0,5.88-.57c1.65-.28,2.39-1.75,2.24-4-.13-1.8-.92-2.69-2.69-2.72q-12.4-.21-24.83-.34c-10.75-.1-10-.15-20.73-.24a10.93,10.93,0,0,1-2.13-.23c-2.22-.46-3.23-3-2.07-5.22a3.39,3.39,0,0,1,3.22-2.24c14.86.08,18.22.05,33.08,0a4.38,4.38,0,0,0,3.77-3.53c.42-2.11-.51-3.83-2.4-3.94-3.75-.22-7.51-.29-11.26-.32L6.15,24.23A25.14,25.14,0,0,1,2,23.83C.5,23.56-.13,22.46,0,20.7c.21-2.58,1.63-4.09,3.84-4.09,20.28,0,37.11,0,57.38,0,2,0,2.75-1.5,3.49-3.08a3.39,3.39,0,0,0-.85-3.94A2.87,2.87,0,0,0,62,8.8c-10.61-.05-24.74-.08-30.29-.19-2.44,0-3.38-1.16-3.45-3.46A5.45,5.45,0,0,1,29.42,1.7C30.57.55,32.22.35,33.87.34,48.46.27,63.05.06,77.64,0q30.21-.08,60.43.06c3.76,0,7.55.47,11,.47A3.46,3.46,0,0,1,152.5,4a23.4,23.4,0,0,1,.14,4.88c-.22,4.38-.58,4.16-1,8.53-.11,1.33.15,1.89,1.38,1.91,7,.11,14.05.48,21.07.39A10.6,10.6,0,0,1,183,23.92c6.42,8,12.73,16.16,19,24.32A16.3,16.3,0,0,1,205.12,60c-.87,10.41-1.56,20.84-2.36,31.26-.36,4.7-2.86,7.44-6.91,7.68-1.61.09-1.71-.1-1.87-1.94a43.43,43.43,0,0,0-.83-6.8c-3.44-13.44-16.07-19.93-27.44-14-7.48,3.91-12.3,10.6-14,20.12-.42,2.37-.41,2.37-2.54,2.37L87,98.54c-1,0-2.32.21-3-.41s-.52-2.1-.65-3.23c-.88-7.37-3.6-13.53-9.12-17.48C67.44,72.56,60.39,73,53.5,77.15c-6.7,4.08-10.78,10.62-12.42,19.26-.59,3.11,0,2.59-2.81,2.56-3.35,0-6.71-.15-10.07-.25-.62,0-1.25-.06-1.87-.13-3.41-.38-4.73-1.81-4.63-5.82.16-5.9.6-11.79.95-17.68.19-3.13.54-6.25.64-9.39.06-1.55.58-1.92,1.78-1.92,4.21,0,8.42-.08,12.62-.15a33.27,33.27,0,0,0,4.69-.22,6.45,6.45,0,0,0,2.94-1.28,3.38,3.38,0,0,0,.94-3.78C45.71,56.53,45.06,56,43.4,56c-16.78-.14-22.06-.29-38.85-.43-1.27,0-2.52-1.41-2.72-3S2.65,48.92,4,48.72a44.54,44.54,0,0,1,6.41-.59c10-.06,8.55,0,18.58,0Zm122.42,1.09c13.31.4,30.07.58,43.21.16a3.63,3.63,0,0,0-.25-.7c-5.38-6.72-10.71-13.48-16.19-20.09a5.19,5.19,0,0,0-3.44-1.77c-5.89-.34-20.61-.83-22.18-.61C152,33.39,151.91,41,151.37,48.87Z"/><path class="cls-1" d="M79,97.94c0,11.32-9.61,21.12-19.42,20.53-9.24-.57-16.13-10.73-14.31-21.34,1.68-9.84,8.5-17.19,16.83-18.16C69.33,78.14,77,84.24,78.48,92.2A56.93,56.93,0,0,1,79,97.94Z"/><path class="cls-1" d="M186.55,86.15c-3.76-5.82-9.06-7.79-15.1-7-8,1.09-15.13,10.08-15.85,19.67-.79,10.59,6.17,19.53,16.63,19.63,6.58-.52,12.53-4.75,15.83-13.33C190.59,98.59,190.35,92,186.55,86.15Zm-14.7,22.19c-4.18,0-7.68-4-7.69-8.75,0-5.62,4.25-10.35,9.21-10.45,4.81-.1,7.58,4.44,7.57,8.74C180.94,103.71,176.91,108.34,171.85,108.34Z"/><path class="cls-1" d="M180.94,97.88c0,5.83-4,10.46-9.09,10.46-4.18,0-7.68-4-7.69-8.75,0-5.62,4.25-10.35,9.21-10.45C178.18,89,181,93.58,180.94,97.88Z"/><g id="gwMuF3"><path class="cls-2" d="M109.45,70.7a23.43,23.43,0,0,1-14.8-41.54c1.87-1.54,4.11-1.52,5.49,0s1.15,3.76-.8,5.5C92,41.29,91.11,51,97.58,58.13a15.2,15.2,0,0,0,16.58,4.62,15.44,15.44,0,0,0,11.33-12.81c1.1-6.16-1.11-11.22-5.79-15.24A3.77,3.77,0,0,1,118.1,31a3.62,3.62,0,0,1,6-2.15c9.21,6.91,11.69,20.86,5.47,30.66A23.34,23.34,0,0,1,109.45,70.7Z"/><path class="cls-2" d="M113.1,37c0,3.88,0-1.68,0,2.2,0,2.56-1.31,4-3.57,4s-3.54-1.43-3.55-4c0-7.91,0-6.39,0-14.3a3.36,3.36,0,0,1,2.86-3.58,3.47,3.47,0,0,1,4,2.08,5.77,5.77,0,0,1,.27,2C113.11,29.28,113.1,33.16,113.1,37Z"/></g></g></g></svg>