<svg xmlns="http://www.w3.org/2000/svg" viewBox="0 0 78.92 83.19"><defs><style>.cls-1{fill:#fff;}.cls-2{fill:#00a651;}</style></defs><g id="Layer_2" data-name="Layer 2"><g id="Layer_1-2" data-name="Layer 1"><g id="gwMuF3"><path class="cls-1" d="M39.35,83.19a39.42,39.42,0,0,1-24.9-69.9c3.15-2.59,6.92-2.56,9.23.07,2.46,2.8,1.94,6.33-1.35,9.26C9.9,33.71,8.49,50,19.38,62c7.51,8.29,17.17,11,27.91,7.78,10.57-3.2,17.11-10.63,19.06-21.57,1.84-10.35-1.87-18.86-9.74-25.64C54.67,21,53.42,19,53.9,16.42c.89-4.77,6.06-6.61,10-3.62,15.49,11.64,19.68,35.11,9.2,51.61C65.53,76.4,53.28,83.21,39.35,83.19Z"/><path class="cls-2" d="M45.49,26.54c0,6.52,0-2.83,0,3.69,0,4.32-2.21,6.78-6,6.76s-6-2.41-6-6.79c0-13.31,0-10.74,0-24,0-3.33,1.81-5.46,4.81-6A5.84,5.84,0,0,1,45,3.61,9.94,9.94,0,0,1,45.47,7C45.51,13.49,45.49,20,45.49,26.54Z"/></g></g></g></svg>