<svg xmlns="http://www.w3.org/2000/svg" viewBox="0 0 16 20"><defs><style>.cls-1{fill:#1e974a;}</style></defs><g id="Layer_2" data-name="Layer 2"><g id="Layer_1-2" data-name="Layer 1"><path class="cls-1" d="M11,3.33V1.67H5V3.33ZM11,5H5A1.86,1.86,0,0,1,3,3.38V1.62A1.86,1.86,0,0,1,5,0h6a1.86,1.86,0,0,1,2,1.62V3.38A1.86,1.86,0,0,1,11,5Z"/><path class="cls-1" d="M13.27,2H11.76a.95.95,0,0,0,0,1.89h1.51a.85.85,0,0,1,.85.86v12.5a.85.85,0,0,1-.85.86H2.73a.85.85,0,0,1-.85-.86V4.75a.85.85,0,0,1,.85-.86H4.24A.95.95,0,0,0,4.24,2H2.73A2.74,2.74,0,0,0,0,4.75v12.5A2.74,2.74,0,0,0,2.73,20H13.27A2.74,2.74,0,0,0,16,17.25V4.75A2.74,2.74,0,0,0,13.27,2Z"/><rect class="cls-1" x="3.25" y="7.14" width="6.63" height="1.81" rx="0.39"/><rect class="cls-1" x="3.25" y="10.77" width="6.63" height="1.81" rx="0.39"/><rect class="cls-1" x="3.25" y="14.23" width="8.35" height="1.81" rx="0.39"/></g></g></svg>