<svg xmlns="http://www.w3.org/2000/svg" viewBox="0 0 18 17.55"><defs><style>.cls-1{fill:#1e974a;fill-rule:evenodd;}</style></defs><g id="Layer_2" data-name="Layer 2"><g id="Layer_1-2" data-name="Layer 1"><path class="cls-1" d="M1.3,3.59,8.59.07a.77.77,0,0,1,.63,0l7.45,3.52a.72.72,0,0,1,0,1.3L9.24,8.75a.72.72,0,0,1-.67,0L1.28,4.89A.73.73,0,0,1,1.3,3.59Z"/><path class="cls-1" d="M0,7.1v5.64a.73.73,0,0,0,.36.63L6.9,17.26A.73.73,0,0,0,8,16.64V10.37a.74.74,0,0,0-.4-.65L1.06,6.45A.73.73,0,0,0,0,7.1Z"/><path class="cls-1" d="M18,6.72v6.16a.49.49,0,0,1-.24.42l-7,4.18a.5.5,0,0,1-.75-.43V10.23a.49.49,0,0,1,.27-.44l7-3.51A.49.49,0,0,1,18,6.72Z"/></g></g></svg>