<svg xmlns="http://www.w3.org/2000/svg" viewBox="0 0 114.17 107.85"><defs><style>.cls-1{fill:#8cc63f;}</style></defs><g id="Layer_2" data-name="Layer 2"><g id="Layer_1-2" data-name="Layer 1"><circle class="cls-1" cx="44.96" cy="99.66" r="8.19"/><circle class="cls-1" cx="78.64" cy="99.66" r="8.19"/><path class="cls-1" d="M88.38,61.82A36,36,0,0,1,53.92,36.3L41.1,35.14,24.71,33.57c-.09-.39-.19-.78-.27-1.18-.87-4.16-1.75-6.92-2.61-11.08-.49-2.36-2.3-3-5-3.73-3.44-1-6.72-2.37-10.23-3.07C3.48,13.88.88,14.16.16,16.72a4.09,4.09,0,0,0,3,5.1c3.41,1,6.81,2,10.23,3A1.28,1.28,0,0,1,14.52,26c.71,3.67,1.5,4.05,2.26,7.71Q20.17,50,23.54,66.23c1.51,7.25,3,11.7,4.51,19,.5,2.39,1.91,2.57,4.35,2.58h7.3l51.4,0a4,4,0,0,0,4.09-3.18c.37-2.06-.71-3.1-2.64-3.7a8,8,0,0,0-2.29-.23L37,80.65l-2.07.06-1.32-4.39H77.91c4.76,0,9.51,0,14.26,0,3.37,0,5.94-4,6.56-7.15.68-3.44,1.36-6.5,2-9.53A35.84,35.84,0,0,1,88.38,61.82Z"/><path class="cls-1" d="M88.38,0a25.8,25.8,0,1,0,25.79,25.79A25.79,25.79,0,0,0,88.38,0Zm4.29,30.09v9.74H84.56V30.09H74.81V22h9.75V12.23h8.11V22h9.75v8.12Z"/></g></g></svg>