<svg xmlns="http://www.w3.org/2000/svg" viewBox="0 0 165.38 162.53"><defs><style>.cls-1,.cls-2{fill:#fff;}.cls-1{stroke:#fff;stroke-miterlimit:10;stroke-width:4px;}</style></defs><g id="Layer_2" data-name="Layer 2"><g id="Layer_1-2" data-name="Layer 1"><path class="cls-1" d="M112,54.8V52.13h-2.73V54.8Z"/><path class="cls-1" d="M115.48,36.09h12.14V33.36H115.48Z"/><path class="cls-1" d="M115.57,14.57v2.77h12V14.57Z"/><path class="cls-1" d="M109.29,14.56v2.79H112V14.56Z"/><path class="cls-1" d="M163.31,146.61c0-1-4-.9-5.29.13-1.31-1-6.34-1-7.62,0-1.34-1.08-6.29-1-7.55,0-1.33-1.07-6.27-1-7.57,0-1.34-1.06-6.38-1-7.58,0-1.37-1.07-6.32-1-7.59,0-1.33-1.07-6.28-1-7.56,0-1.34-1.06-6.29-1-7.59,0-1.28-1-6.32-1-7.58,0-1.32-1.06-6.28-1-7.59,0-1.3-1-6.35-1-7.62,0-1.33-1-6.28-1-7.56,0-1.29-1-6.35-1-7.65,0-1.34-1.06-7.12-.51-8.61.83a3.33,3.33,0,0,0-1,2.09,19.71,19.71,0,0,0,0,2.17c0,2.58-2.49,4.66-2.49,4.66-3,1-3.92,2-8.25.42s-6.25-5.64-6.25-10.52c0-46,0-82,0-128,0-5-1-9.38-4.74-12.92-.05,0,0-.23,0-.48h1.72q45.75,0,91.52,0c6.84,0,11.48,4.67,11.49,11.52v59l3,.65V53.59q0-18.26,0-36.5C143.37,7.85,137.51,2,128.24,2H27.35c-9.1,0-13,5.91-13,15q0,29.09,0,58.17A10.92,10.92,0,0,1,5.58,86.13a13.15,13.15,0,0,0-2.3.29c-.55.23-1.27.9-1.28,1.39s.7,1.13,1.25,1.42A4.1,4.1,0,0,0,5,89.31H37.35v2.83c0,21.15,0,32.29,0,53.44,0,9,5.92,14.94,14.88,14.94H87.36q33.27,0,66.54,0c8.35,0,9.41-1.09,9.45-9.4C163.37,147.28,163.43,150.44,163.31,146.61Zm-126-61.75c0,.38-.05.76-.1,1.36H12.76c0-.17-.07-.35,0-.4,3.61-3.5,4.7-7.81,4.67-12.75-.12-19-.06-38.1,0-57.15,0-5.45,2-10,7.37-10.83a10.85,10.85,0,0,1,12,7.29,11.44,11.44,0,0,1,.59,3.43Q37.34,50.34,37.31,84.86Z"/><path class="cls-1" d="M96.77,36.11h2.78V33.34H96.77Z"/><path class="cls-1" d="M115.52,54.86h12.14V52.07H115.52Z"/><path class="cls-1" d="M105.75,129.77V127.1H103v2.67Z"/><path class="cls-1" d="M115.53,129.82h11.82c-4-.66-7.46-3.57-11.82-2.76Z"/><path class="cls-1" d="M109.31,129.85H112v-2.77h-2.7Z"/><path class="cls-1" d="M109.26,36.05H112V33.34h-2.78Z"/><path class="cls-1" d="M140.52,150c1.2-.75,2.6-1.66,2.74-2.74.34-2.71.11-25.49.11-28.37l-2.85.65Z"/><path class="cls-1" d="M103,17.37h2.79V14.6H103Z"/><path class="cls-1" d="M103.08,54.8h2.73V52.13h-2.73Z"/><path class="cls-1" d="M103,36.11h2.78V33.39H103Z"/><path class="cls-1" d="M87.07,52.07h-34v2.79h34Z"/><path class="cls-1" d="M53.06,73.6h34V70.81h-34Z"/><path class="cls-1" d="M93.32,127.1H90.59v2.66h2.73Z"/><path class="cls-1" d="M96.8,14.56v2.79h2.73V14.56Z"/><path class="cls-1" d="M87.07,108.36h-34V111h34Z"/><path class="cls-1" d="M93.27,108.34H90.51V111h2.76Z"/><path class="cls-1" d="M53.06,92.28h34V89.62h-34Z"/><path class="cls-1" d="M87.07,127.1h-34v2.66h34Z"/><path class="cls-1" d="M99.55,70.82H96.77v2.72h2.78Z"/><path class="cls-1" d="M96.75,129.8h2.79v-2.74H96.75Z"/><path class="cls-1" d="M96.78,108.3v2.79H99.5V108.3Z"/><path class="cls-1" d="M99.5,54.87V52.08H96.78v2.79Z"/><path class="cls-1" d="M90.5,17.33h2.77v-2.7H90.5Z"/><path class="cls-1" d="M90.56,36.14h2.73V33.36H90.56Z"/><path class="cls-1" d="M90.55,54.83h2.74V52.05H90.55Z"/><path class="cls-1" d="M90.53,92.33h2.79V89.62H90.53Z"/><path class="cls-1" d="M93.32,70.88H90.54v2.71h2.78Z"/><path class="cls-2" d="M161.27,82.88l-38.52,45-21-24.75,7.9-11.8,13.11,16,30-35.44a35.44,35.44,0,1,0,8.42,11Z"/><g id="gwMuF3"><path class="cls-2" d="M67.2,41.48a13.57,13.57,0,0,1-8.57-24.07,2.21,2.21,0,0,1,3.18,0c.84,1,.67,2.18-.47,3.19-4.28,3.82-4.77,9.44-1,13.58a8.84,8.84,0,0,0,9.62,2.68,9,9,0,0,0,6.56-7.43,9,9,0,0,0-3.35-8.83,2.19,2.19,0,0,1-.93-2.14,2.1,2.1,0,0,1,3.45-1.24A13.57,13.57,0,0,1,67.2,41.48Z"/><path class="cls-2" d="M69.32,22v1.27c0,1.49-.77,2.33-2.07,2.33s-2.06-.83-2.06-2.34c0-4.58,0-3.7,0-8.28a1.94,1.94,0,0,1,1.65-2.08,2,2,0,0,1,2.3,1.2,3.23,3.23,0,0,1,.16,1.16C69.32,17.48,69.32,19.72,69.32,22Z"/></g></g></g></svg>