<svg xmlns="http://www.w3.org/2000/svg" viewBox="0 0 97.21 56.13"><defs><style>.cls-1{fill:#1e974a;}</style></defs><g id="Layer_2" data-name="Layer 2"><g id="Layer_1-2" data-name="Layer 1"><path class="cls-1" d="M13.71,22.63c4.84,0,9.67,0,14.51,0A16.26,16.26,0,0,0,31,22.35c.78-.13,1.13-.83,1.06-1.87-.06-.86-.43-1.28-1.27-1.29C26.87,19.12,23,19.06,19,19,13.93,19,14.3,19,9.21,18.91a4.88,4.88,0,0,1-1-.11,1.64,1.64,0,0,1-1-2.47,1.58,1.58,0,0,1,1.52-1.06c7,0,8.63,0,15.67,0a2.08,2.08,0,0,0,1.79-1.67c.19-1-.24-1.82-1.14-1.87-1.78-.11-3.56-.14-5.34-.15L2.91,11.48a13,13,0,0,1-2-.19c-.71-.13-1-.65-.94-1.48.1-1.23.77-1.94,1.82-1.94,9.61,0,17.58,0,27.18,0,.93,0,1.3-.71,1.65-1.46a1.6,1.6,0,0,0-.4-1.86,1.32,1.32,0,0,0-.88-.39c-5,0-11.73,0-14.35-.09-1.16,0-1.61-.55-1.64-1.64A2.53,2.53,0,0,1,13.94.81,2.87,2.87,0,0,1,16,.16C23,.13,29.87,0,36.78,0Q51.09,0,65.41,0c1.78,0,3.57.22,5.21.22a1.64,1.64,0,0,1,1.62,1.62,11.14,11.14,0,0,1,.07,2.31c-.11,2.07-.27,2-.45,4-.06.63.06.89.65.9,3.32.06,6.65.23,10,.19a5,5,0,0,1,4.2,2c3,3.8,6,7.66,9,11.52a7.71,7.71,0,0,1,1.47,5.57c-.41,4.94-.74,9.88-1.12,14.81-.17,2.23-1.35,3.53-3.27,3.64-.76,0-.81,0-.89-.92a20.1,20.1,0,0,0-.39-3.22c-1.63-6.36-7.61-9.44-13-6.63a12.61,12.61,0,0,0-6.63,9.53c-.2,1.12-.2,1.13-1.2,1.13l-29.46-.08c-.48,0-1.09.1-1.42-.19s-.24-1-.31-1.53c-.41-3.5-1.7-6.41-4.31-8.29-3.22-2.3-6.56-2.11-9.83-.12s-5.1,5-5.88,9.12c-.28,1.48,0,1.23-1.33,1.22-1.59,0-3.18-.08-4.77-.12a8.89,8.89,0,0,1-.89-.07c-1.61-.18-2.24-.85-2.19-2.75.08-2.8.28-5.59.45-8.38.09-1.48.26-3,.31-4.44,0-.74.27-.91.84-.91,2,0,4,0,6-.08a14.94,14.94,0,0,0,2.22-.1,3.1,3.1,0,0,0,1.39-.61,1.61,1.61,0,0,0,.45-1.79c-.27-.86-.57-1.1-1.36-1.1-7.95-.07-10.45-.14-18.4-.21A1.53,1.53,0,0,1,.87,24.89c-.1-.76.38-1.72,1-1.81a22,22,0,0,1,3-.28c4.75,0,4.05,0,8.8,0Zm58,.52c6.3.19,14.24.28,20.47.07a1.6,1.6,0,0,0-.12-.33c-2.55-3.18-5.08-6.38-7.67-9.51a2.48,2.48,0,0,0-1.63-.84c-2.79-.16-9.76-.39-10.51-.29C72,15.82,72,19.43,71.71,23.15Z"/><path class="cls-1" d="M37.42,46.4c0,5.36-4.56,10-9.2,9.72C23.84,55.85,20.58,51,21.44,46c.8-4.66,4-8.14,8-8.6,3.43-.39,7.05,2.5,7.77,6.27C37.34,44.56,37.34,45.49,37.42,46.4Z"/><path class="cls-1" d="M88.37,40.81a6.86,6.86,0,0,0-7.15-3.3c-3.79.52-7.17,4.78-7.51,9.32-.37,5,2.92,9.25,7.88,9.3,3.12-.24,5.93-2.25,7.5-6.32A9.57,9.57,0,0,0,88.37,40.81Zm-7,10.51a4,4,0,0,1-3.64-4.14,4.8,4.8,0,0,1,4.36-5c2.28,0,3.59,2.1,3.58,4.14C85.71,49.13,83.81,51.32,81.41,51.32Z"/><path class="cls-1" d="M85.71,46.37c0,2.76-1.9,5-4.3,5a4,4,0,0,1-3.64-4.14,4.8,4.8,0,0,1,4.36-5C84.41,42.18,85.72,44.33,85.71,46.37Z"/></g></g></svg>