<svg xmlns="http://www.w3.org/2000/svg" viewBox="0 0 636.44 175.96"><defs><style>.cls-1{fill:#83cd07;}.cls-2{fill:#fff;}.cls-3{fill:#00a651;}</style></defs><g id="Layer_2" data-name="Layer 2"><g id="Layer_1-2" data-name="Layer 1"><path class="cls-1" d="M47.35,43.88H110.5v-4.8c0-10.56,0-21.13,0-31.69,0-5.08,2.23-7.29,7.36-7.34C125.31,0,132.75,0,140.19,0c5.17,0,7.37,2.05,7.88,7.07q3.06,30.39,6.08,60.79c.25,2.51.12,5.06.12,7.58,0,26.49,3.58,53,3.56,79.47,0,12.44-8.55,21-21,21-36.31,0-79.76,0-116.07,0C8.65,175.94,0,167.32,0,155.18c0-28.12,3.18-56.25,3.73-84.37C4,57.62,6,44.47,7.31,31.3,8.06,23.61,9,15.93,9.65,8.23,10.22,2,12.15.06,18.29,0c7,0,14,0,21,0,5.93,0,8,2.17,8.06,8q0,15.63,0,31.25Z"/><g id="gwMuF3"><path class="cls-2" d="M79.38,150.5A39.42,39.42,0,0,1,54.49,80.6c3.14-2.58,6.92-2.56,9.22.07,2.46,2.8,1.95,6.33-1.34,9.26-12.44,11.09-13.85,27.4-3,39.42,7.52,8.3,17.18,11,27.91,7.78,10.57-3.2,17.12-10.63,19.06-21.57,1.84-10.35-1.87-18.86-9.74-25.64-1.93-1.66-3.18-3.58-2.7-6.19.88-4.77,6-6.61,10-3.62,15.49,11.64,19.68,35.11,9.21,51.61C105.56,143.71,93.31,150.52,79.38,150.5Z"/><path class="cls-3" d="M85.52,93.85c0,6.53,0-2.83,0,3.7,0,4.31-2.21,6.77-6,6.75s-6-2.41-6-6.78c0-13.32,0-10.75,0-24.06,0-3.33,1.8-5.46,4.8-6A5.83,5.83,0,0,1,85,70.92a9.49,9.49,0,0,1,.46,3.36C85.54,80.81,85.52,87.33,85.52,93.85Z"/></g><path class="cls-1" d="M196.87,52.68a6,6,0,0,0,6,6.08c3.57,0,5.78-2,5.78-5,0-4.34-5.69-5.59-10.42-7.23-9.74-3.48-15.14-8-15.14-17.95,0-10.23,8.78-18.72,19.68-18.72,12.83,0,18.91,8.2,19.68,18.91H209.13a5.62,5.62,0,0,0-6-6c-3.08,0-6.07,1.83-6.07,5.6,0,4.34,5.3,5.11,10.22,6.56,10.33,3.09,15.15,8.87,15.15,17.94,0,10.23-8.68,18.72-19.58,18.72-12.64,0-19.78-8.49-19.78-18.91Z"/><path class="cls-1" d="M241.26,24.31H228.33V11.77h40.33V24.31H255.53V69.66H241.26Z"/><path class="cls-1" d="M291.62,9.84h2.51l28.36,59.82H307.25l-2.9-6H281.49l-2.8,6H263.45Zm7.91,43.71-6.66-14.67h-.19l-6.75,14.67Z"/><path class="cls-1" d="M328.67,11.77h24.22c12.44,0,20.55,7.53,20.55,18.43,0,10.13-5.12,15.82-13.7,18l15.63,21.51H357.61L342.85,48.05V69.66H328.67Zm25.57,25.09c3.18,0,5.3-3.28,5.3-6.66s-2.51-6.37-5.69-6.37h-11v13Z"/><path class="cls-1" d="M389.65,24.31H376.72V11.77h40.33V24.31H403.93V69.66H389.65Z"/><path class="cls-2" d="M423.61,11.77h13.22L451.59,43l14.86-31.26h13V69.66H465.38V43.9L452.74,71.59h-2.31L437.79,43.71V69.66H423.61Z"/><path class="cls-2" d="M513.82,9.84h2.51l28.36,59.82H529.45l-2.9-6H503.69l-2.8,6H485.64Zm7.91,43.71-6.66-14.67h-.19l-6.76,14.67Z"/><path class="cls-2" d="M550.87,11.77h14.18V57.5h25.18V69.66H550.87Z"/><path class="cls-2" d="M597.08,11.77h14.18V57.5h25.18V69.66H597.08Z"/><path class="cls-2" d="M491.94,105.93a15.4,15.4,0,0,1-4.63-3.23,1.3,1.3,0,0,1-.52-1,1.34,1.34,0,0,1,.41-1,1.26,1.26,0,0,1,.92-.43,1.33,1.33,0,0,1,.95.43,10.86,10.86,0,0,0,8.41,3.71,8.68,8.68,0,0,0,5.15-1.46,4.54,4.54,0,0,0,2.05-3.84,4.65,4.65,0,0,0-1-3.08A7.57,7.57,0,0,0,501,94a36.82,36.82,0,0,0-4.18-1.59,25.87,25.87,0,0,1-4.63-1.81,8.58,8.58,0,0,1-3-2.65,7.13,7.13,0,0,1-1.16-4.2,7,7,0,0,1,1.22-4.06,8.36,8.36,0,0,1,3.45-2.78,12.26,12.26,0,0,1,5.11-1,13.61,13.61,0,0,1,4.93.89,8.77,8.77,0,0,1,3.69,2.52,2.09,2.09,0,0,1,.65,1.25,1.23,1.23,0,0,1-.43.88,1.38,1.38,0,0,1-.95.41,1,1,0,0,1-.74-.3,8.38,8.38,0,0,0-3.1-2.24,9.77,9.77,0,0,0-4.05-.87,8.64,8.64,0,0,0-5.13,1.41,4.75,4.75,0,0,0-.09,7.65A20.2,20.2,0,0,0,498,90a32.5,32.5,0,0,1,5,1.86,8.2,8.2,0,0,1,3.17,2.69,7.79,7.79,0,0,1,1.23,4.59,6.72,6.72,0,0,1-1.27,4,8.69,8.69,0,0,1-3.53,2.82,12.29,12.29,0,0,1-5.16,1A13.71,13.71,0,0,1,491.94,105.93Z"/><path class="cls-2" d="M530.21,84.49a1.22,1.22,0,0,1,.37.92v19a11.86,11.86,0,0,1-1.34,5.82,8.88,8.88,0,0,1-3.7,3.66,11.2,11.2,0,0,1-5.35,1.25,14.58,14.58,0,0,1-3.38-.38,9,9,0,0,1-2.61-1,1.54,1.54,0,0,1-.9-1.25,2.08,2.08,0,0,1,.08-.43,1.23,1.23,0,0,1,.43-.65,1.12,1.12,0,0,1,.65-.21,1.14,1.14,0,0,1,.52.13,11.05,11.05,0,0,0,5.26,1.51,7.34,7.34,0,0,0,5.66-2.25,8.58,8.58,0,0,0,2.09-6.12V103a7.93,7.93,0,0,1-3.1,2.91,9.11,9.11,0,0,1-4.4,1.09,7.11,7.11,0,0,1-5.69-2.24,9,9,0,0,1-1.93-6.07V85.41a1.25,1.25,0,0,1,1.29-1.29,1.26,1.26,0,0,1,1.29,1.29V98.26a7.07,7.07,0,0,0,1.36,4.7,5.27,5.27,0,0,0,4.24,1.59,7,7,0,0,0,3.39-.88,7.18,7.18,0,0,0,2.58-2.33,5.4,5.4,0,0,0,1-3.08V85.41a1.26,1.26,0,0,1,.37-.92,1.34,1.34,0,0,1,1.85,0Z"/><path class="cls-2" d="M556,75a1.29,1.29,0,0,1,.36.93v29.31a1.23,1.23,0,0,1-1.29,1.29,1.26,1.26,0,0,1-.93-.36,1.29,1.29,0,0,1-.36-.93v-3a9.21,9.21,0,0,1-3.22,3.36,8.49,8.49,0,0,1-4.72,1.38,9.33,9.33,0,0,1-5.15-1.48,10.43,10.43,0,0,1-3.64-4.12,13.68,13.68,0,0,1,0-11.77,10.4,10.4,0,0,1,3.64-4.11A9.25,9.25,0,0,1,545.75,84a9.16,9.16,0,0,1,4.7,1.27,8.73,8.73,0,0,1,3.28,3.3V75.93a1.29,1.29,0,0,1,.36-.93,1.26,1.26,0,0,1,.93-.36A1.29,1.29,0,0,1,556,75Zm-5.87,28.39a7.78,7.78,0,0,0,2.8-3.26,10.5,10.5,0,0,0,1-4.67,10.31,10.31,0,0,0-1-4.62,8,8,0,0,0-2.8-3.25,7.47,7.47,0,0,0-8.06,0,8.16,8.16,0,0,0-2.8,3.25,11.14,11.14,0,0,0,0,9.27,8.12,8.12,0,0,0,2.8,3.26,7.16,7.16,0,0,0,4,1.18A7.25,7.25,0,0,0,550.08,103.39Z"/><path class="cls-2" d="M579.35,86.34a9.7,9.7,0,0,1,1.87,6.23v12.67a1.24,1.24,0,0,1-.39.93,1.27,1.27,0,0,1-.9.36,1.23,1.23,0,0,1-1.29-1.29V92.7a7.06,7.06,0,0,0-1.4-4.55,5.25,5.25,0,0,0-4.34-1.74,7.73,7.73,0,0,0-6.2,3.16,5.29,5.29,0,0,0-1,3.13v12.54a1.29,1.29,0,1,1-2.58,0V85.93a1.29,1.29,0,1,1,2.58,0V88.3A9.24,9.24,0,0,1,569,85.22,9,9,0,0,1,573.46,84Q577.48,84,579.35,86.34Z"/><path class="cls-2" d="M606.22,95.13a1.26,1.26,0,0,1-.9.37H589a9.87,9.87,0,0,0,1.06,4.63,7.93,7.93,0,0,0,3,3.24,8.76,8.76,0,0,0,4.63,1.18,7.93,7.93,0,0,0,3.71-.86,7.82,7.82,0,0,0,2.63-2.2,1.42,1.42,0,0,1,.9-.39,1.08,1.08,0,0,1,.78.35,1.07,1.07,0,0,1,.34.77,1.27,1.27,0,0,1-.43.91,10.93,10.93,0,0,1-3.47,2.76,9.61,9.61,0,0,1-4.42,1.07,11.8,11.8,0,0,1-5.86-1.42,10,10,0,0,1-4-4,12,12,0,0,1-1.43-5.93,13.11,13.11,0,0,1,1.4-6.19,10.24,10.24,0,0,1,3.73-4,9.5,9.5,0,0,1,5-1.4,10.11,10.11,0,0,1,4.85,1.21,9.5,9.5,0,0,1,3.68,3.53,10.65,10.65,0,0,1,1.47,5.52A1.16,1.16,0,0,1,606.22,95.13ZM592,88.22a7.92,7.92,0,0,0-2.74,5h14.7v-.34a6.88,6.88,0,0,0-1.3-3.39A7,7,0,0,0,600,87.25a7.72,7.72,0,0,0-3.34-.76A7.21,7.21,0,0,0,592,88.22Z"/><path class="cls-2" d="M629.09,84.49a1.25,1.25,0,0,1,.36.92v19a11.86,11.86,0,0,1-1.33,5.82,8.9,8.9,0,0,1-3.71,3.66,11.19,11.19,0,0,1-5.34,1.25,14.61,14.61,0,0,1-3.39-.38,9,9,0,0,1-2.61-1,1.54,1.54,0,0,1-.9-1.25,3.21,3.21,0,0,1,.08-.43,1.19,1.19,0,0,1,.44-.65,1.09,1.09,0,0,1,.64-.21,1.11,1.11,0,0,1,.52.13,11.05,11.05,0,0,0,5.26,1.51,7.38,7.38,0,0,0,5.67-2.25,8.62,8.62,0,0,0,2.09-6.12V103a8,8,0,0,1-3.11,2.91,9.07,9.07,0,0,1-4.39,1.09,7.09,7.09,0,0,1-5.69-2.24,8.92,8.92,0,0,1-1.94-6.07V85.41a1.29,1.29,0,1,1,2.58,0V98.26a7.12,7.12,0,0,0,1.36,4.7,5.29,5.29,0,0,0,4.25,1.59,7,7,0,0,0,3.38-.88,7.29,7.29,0,0,0,2.59-2.33,5.47,5.47,0,0,0,1-3.08V85.41a1.31,1.31,0,0,1,2.22-.92Z"/></g></g></svg>