<svg xmlns="http://www.w3.org/2000/svg" viewBox="0 0 157.83 175.96"><defs><style>.cls-1{fill:#83cd07;}.cls-2{fill:#fff;}.cls-3{fill:#00a651;}</style></defs><g id="Layer_2" data-name="Layer 2"><g id="Layer_1-2" data-name="Layer 1"><path class="cls-1" d="M47.35,43.88H110.5v-4.8c0-10.56,0-21.13,0-31.69,0-5.08,2.23-7.29,7.36-7.34C125.31,0,132.75,0,140.19,0c5.17,0,7.37,2.05,7.88,7.07q3.06,30.39,6.08,60.79c.25,2.51.12,5.06.12,7.58,0,26.49,3.58,53,3.56,79.47,0,12.44-8.55,21-21,21-36.31,0-79.76,0-116.07,0C8.65,175.94,0,167.32,0,155.18c0-28.12,3.18-56.25,3.73-84.37C4,57.62,6,44.47,7.31,31.3,8.06,23.61,9,15.93,9.65,8.23,10.22,2,12.15.06,18.29,0c7,0,14,0,21,0,5.93,0,8,2.17,8.06,8q0,15.63,0,31.25Z"/><g id="gwMuF3"><path class="cls-2" d="M79.38,150.5A39.42,39.42,0,0,1,54.49,80.6c3.14-2.58,6.92-2.56,9.22.07,2.46,2.8,1.95,6.33-1.34,9.26-12.44,11.09-13.85,27.4-3,39.42,7.52,8.3,17.18,11,27.91,7.78,10.57-3.2,17.12-10.63,19.06-21.57,1.84-10.35-1.87-18.86-9.74-25.64-1.93-1.66-3.18-3.58-2.7-6.19.88-4.77,6-6.61,10-3.62,15.49,11.64,19.68,35.11,9.21,51.61C105.56,143.71,93.31,150.52,79.38,150.5Z"/><path class="cls-3" d="M85.52,93.85c0,6.53,0-2.83,0,3.7,0,4.31-2.21,6.77-6,6.75s-6-2.41-6-6.78c0-13.32,0-10.75,0-24.06,0-3.33,1.8-5.46,4.8-6A5.83,5.83,0,0,1,85,70.92a9.49,9.49,0,0,1,.46,3.36C85.54,80.81,85.52,87.33,85.52,93.85Z"/></g></g></g></svg>