 <svg
        height="136.89715910391106"
        width="350"
        style="width: 350px; height: 136.897px; position: absolute; top: 50%; left: 50%; transform: translate(-50%, -50%) scale(1); z-index: 0; cursor: pointer;"
      >
        <defs id="SvgjsDefs1001">
          <linearGradient id="SvgjsLinearGradient1011">
            <stop id="SvgjsStop1012" stop-color="#00ddff" offset="0"></stop>
            <stop id="SvgjsStop1013" stop-color="#ff00d4" offset="1"></stop>
          </linearGradient>
        </defs>
        <g
          id="SvgjsG1007"
          featurekey="nameFeature-0"
          transform="matrix(3.1655348419499334,0,0,3.1655348419499334,-6.18425581532954,-33.879865285084925)"
          fill="url(#SvgjsLinearGradient1011)"
        >
          <path d="M35.43 19.492 q-0.05859375 0.2734375 -0.25390625 0.4296875 t-0.42969 0.15625 q-0.3515625 0 -0.56640625 -0.224609375 t-0.21484 -0.51758 t0.058594 -0.57617 t0.058594 -0.55664 q0 -1.42578125 -0.87890625 -2.55859375 t-2.4902 -1.9043 t-3.916 -1.1816 t-5.1367 -0.41016 q-2.16796875 0 -4.365234375 0.283203125 t-4.2188 0.82031 t-3.7793 1.3477 t-3.0566 1.875 t-2.041 2.3633 t-0.74219 2.8418 q0 1.19140625 0.517578125 2.099609375 t1.416 1.582 t2.1191 1.1523 t2.6465 0.80078 t2.9688 0.52734 t3.1055 0.3418 l3.0078 0.25391 q2.24609375 0.1953125 4.0234375 0.41015625 t3.125 0.54688 q2.24609375 0.56640625 3.3203125 1.62109375 t1.0742 2.8125 q0 1.69921875 -0.9375 2.98828125 t-2.5586 2.168 t-3.7891 1.3281 t-4.6484 0.44922 q-2.6953125 0 -4.736328125 -0.361328125 t-3.418 -0.80078 t-2.0996 -0.81055 t-0.78125 -0.41016 q-0.3515625 -0.1953125 -0.3515625 -0.625 q0 -0.33203125 0.234375 -0.537109375 t0.50781 -0.20508 q0.21484375 0 0.390625 0.1171875 q0.01953125 0 0.673828125 0.341796875 t1.9531 0.75195 t3.2129 0.74219 t4.4434 0.33203 t4.4629 -0.41016 t3.252 -1.1426 t1.9922 -1.7188 t0.67383 -2.1387 q0 -0.68359375 -0.244140625 -1.181640625 t-0.67383 -0.85938 t-1.0254 -0.61523 t-1.2988 -0.42969 q-0.7421875 -0.1953125 -1.591796875 -0.33203125 t-1.748 -0.23438 t-1.7969 -0.17578 l-4.8047 -0.41016 q-3.5546875 -0.29296875 -6.201171875 -0.908203125 t-4.4043 -1.582 t-2.6367 -2.3145 t-0.87891 -3.1641 t0.83008 -3.3496 t2.2656 -2.7637 t3.3594 -2.1387 t4.1113 -1.5137 t4.5313 -0.9082 t4.6094 -0.30273 q2.83203125 0 4.931640625 0.341796875 t3.5938 0.87891 t2.4512 1.2207 t1.543 1.3477 q1.38671875 1.62109375 1.38671875 3.69140625 q0 0.68359375 -0.13671875 1.30859375 z M44.687031250000004 34.5898 q-0.21484375 0.44921875 -0.537109375 1.064453125 t-0.73242 1.2793 t-0.91797 1.3184 t-1.1035 1.1719 t-1.2695 0.83984 t-1.4355 0.32227 q-1.171875 0 -2.01171875 -0.72265625 t-1.4258 -1.8945 t-0.94727 -2.666 t-0.55664 -3.0469 t-0.26367 -3.0176 t-0.068359 -2.5977 q0 -1.640625 0.107421875 -3.3984375 t0.3418 -3.4375 t0.5957 -3.1836 t0.85938 -2.6367 t1.1426 -1.7969 t1.4648 -0.66406 q0.64453125 0 1.162109375 0.302734375 t0.86914 0.98633 t0.54688 1.7773 t0.19531 2.6758 q0 1.953125 -0.41015625 4.033203125 t-1.1133 4.1895 t-1.6602 4.209 t-2.0508 4.0918 q0.48828125 2.48046875 1.30859375 3.896484375 t1.9727 1.416 q0.78125 0 1.50390625 -0.615234375 t1.3281 -1.4551 t1.0645 -1.709 t0.71289 -1.3965 q0.09765625 -0.1953125 0.2734375 -0.302734375 t0.39063 -0.10742 q0.33203125 0 0.537109375 0.234375 t0.20508 0.52734 q0 0.1171875 -0.078125 0.3125 z M34.90233125 26.738 q0 1.25 0.05859375 2.40234375 t0.15625 2.207 q0.8203125 -1.58203125 1.5625 -3.369140625 t1.3086 -3.6133 t0.9082 -3.6328 t0.3418 -3.4473 q0 -2.3046875 -0.37109375 -3.30078125 t-0.99609 -0.99609 q-0.41015625 0 -0.791015625 0.56640625 t-0.71289 1.543 t-0.60547 2.3047 t-0.45898 2.8516 t-0.29297 3.1836 t-0.10742 3.3008 z M58.4571875 34.5508 q-0.078125 0.15625 -0.322265625 0.654296875 t-0.625 1.1426 t-0.88867 1.3477 t-1.1328 1.2891 t-1.3477 0.9668 t-1.5234 0.38086 q-1.1328125 0 -1.904296875 -0.72265625 t-1.123 -1.8164 q-0.6640625 1.11328125 -1.58203125 1.767578125 t-1.8359 0.6543 q-0.72265625 0 -1.30859375 -0.263671875 t-0.99609 -0.74219 t-0.63477 -1.123 t-0.22461 -1.4063 q0 -1.5234375 0.517578125 -2.685546875 t1.3184 -1.9434 t1.7676 -1.1719 t1.8652 -0.39063 q0.60546875 0 1.11328125 0.166015625 t0.86914 0.36133 t0.55664 0.35156 l0.21484 0.19531 q0.21484375 0.25390625 0.21484375 0.537109375 t-0.21484 0.50781 t-0.51758 0.22461 t-0.51758 -0.21484 l-0.17578 -0.15625 q-0.13671875 -0.09765625 -0.37109375 -0.21484375 t-0.55664 -0.20508 t-0.73242 -0.087891 q-0.60546875 0 -1.2890625 0.2734375 t-1.25 0.84961 t-0.94727 1.4453 t-0.38086 2.0605 q0 0.37109375 0.078125 0.751953125 t0.27344 0.69336 t0.52734 0.50781 t0.82031 0.19531 q0.3515625 0 0.810546875 -0.234375 t0.87891 -0.72266 t0.76172 -1.2305 t0.47852 -1.7578 q0.0390625 -0.2734375 0.25390625 -0.458984375 t0.49805 -0.18555 t0.48828 0.21484 t0.22461 0.48828 q0.01953125 0.37109375 0.078125 1.044921875 t0.26367 1.3379 t0.61523 1.1523 t1.1328 0.48828 q0.46875 0 0.927734375 -0.25390625 t0.89844 -0.67383 t0.83984 -0.95703 t0.73242 -1.084 t0.58594 -1.0547 l0.42969 -0.87891 q0.09765625 -0.21484375 0.283203125 -0.33203125 t0.40039 -0.11719 q0.33203125 0 0.537109375 0.244140625 t0.20508 0.51758 q0 0.13671875 -0.05859375 0.2734375 z M59.2773875 32.7734 q-0.1171875 0.3125 -0.283203125 0.703125 t-0.38086 0.82031 q-0.17578125 0.33203125 -0.361328125 0.517578125 t-0.49805 0.18555 t-0.50781 -0.20508 t-0.19531 -0.47852 q0 -0.09765625 0.01953125 -0.166015625 t0.097656 -0.22461 q0.5078125 -0.9765625 0.751953125 -1.708984375 t0.40039 -1.5332 q-0.13671875 -0.44921875 -0.1953125 -0.76171875 t-0.058594 -0.64453 q0 -0.64453125 0.2734375 -1.044921875 t0.74219 -0.40039 t0.73242 0.39063 t0.26367 0.95703 q0 0.3125 -0.05859375 0.625 l-0.15625 0.78125 q0.44921875 1.11328125 0.8984375 1.97265625 t0.80078 1.5723 t0.57617 1.3379 t0.22461 1.25 q0 0.8203125 -0.33203125 1.5625 t-1.0938 1.25 q0.09765625 0.01953125 0.1953125 0.01953125 l0.19531 0 q1.11328125 0 2.05078125 -0.5078125 t1.6895 -1.3184 t1.3379 -1.7969 t1.0156 -1.9629 q0.1953125 -0.44921875 0.537109375 -0.44921875 t0.52734 0.23438 t0.18555 0.50781 q0 0.15625 -0.05859375 0.29296875 q-0.21484375 0.52734375 -0.556640625 1.201171875 t-0.82031 1.3867 t-1.1035 1.3965 t-1.3965 1.2207 t-1.6895 0.85938 t-2.0117 0.32227 q-1.30859375 0 -2.431640625 -0.458984375 t-1.8262 -1.5137 q-0.1171875 -0.17578125 -0.1171875 -0.37109375 q0 -0.29296875 0.224609375 -0.517578125 t0.52734 -0.22461 t0.51758 0.21484 q0.01953125 0.0390625 0.13671875 0.1171875 l0.29297 0.19531 q0.15625 0.1171875 0.380859375 0.1953125 t0.45898 0.078125 q0.46875 0 0.791015625 -0.1953125 t0.51758 -0.47852 t0.2832 -0.60547 t0.087891 -0.55664 q0 -0.48828125 -0.15625 -0.9765625 t-0.40039 -0.97656 t-0.52734 -1.0059 t-0.51758 -1.084 z M68.8086375 38.3398 q0.3125 -0.6640625 0.72265625 -1.435546875 t0.87891 -1.582 t0.99609 -1.6113 t1.0938 -1.4941 t1.1426 -0.99609 t1.084 -0.30273 t0.88867 0.20508 t0.625 0.55664 t0.37109 0.82031 t0.12695 1.0156 q0 0.44921875 -0.087890625 1.201171875 t-0.087891 1.5723 q0 0.46875 0.048828125 0.927734375 t0.17578 0.82031 t0.38086 0.58594 t0.66406 0.22461 q0.46875 0 0.9375 -0.263671875 t0.91797 -0.70313 t0.85938 -0.97656 t0.74219 -1.0742 t0.58594 -1.0352 t0.41016 -0.83008 q0.1953125 -0.44921875 0.68359375 -0.44921875 q0.33203125 0 0.52734375 0.234375 t0.19531 0.50781 q0 0.15625 -0.05859375 0.29296875 l-0.29297 0.64453 q-0.234375 0.48828125 -0.615234375 1.1328125 t-0.88867 1.3477 t-1.123 1.2988 t-1.3281 0.97656 t-1.4941 0.38086 q-0.8984375 0 -1.4453125 -0.380859375 t-0.84961 -0.9668 t-0.41016 -1.3086 t-0.10742 -1.4063 q0 -0.3515625 0.0390625 -0.76171875 l0.13672 -1.5234 q0.01953125 -0.33203125 0.01953125 -0.56640625 q0 -0.60546875 -0.166015625 -0.8203125 t-0.38086 -0.21484 q-0.3125 0 -0.712890625 0.361328125 t-0.83984 0.94727 t-0.87891 1.3184 t-0.84961 1.4551 t-0.74219 1.3672 l-0.54688 1.0938 q-0.41015625 0.8203125 -0.830078125 1.103515625 t-0.75195 0.2832 q-0.60546875 0 -0.927734375 -0.478515625 t-0.32227 -1.1621 l0.019531 -8.2813 q0 -3.33984375 0.087890625 -6.220703125 t0.29297 -5.2148 t0.61523 -3.9844 t1.0449 -2.5488 t1.5918 -0.89844 q0.8203125 0 1.38671875 0.44921875 t0.91797 1.2207 t0.50781 1.7969 t0.15625 2.1582 q0 2.3046875 -0.419921875 4.521484375 t-1.123 4.3262 t-1.6406 4.1113 t-1.9727 3.8965 l0 3.418 z M68.8086375 31.1328 q0.8203125 -1.796875 1.494140625 -3.505859375 t1.1523 -3.4082 t0.75195 -3.4473 t0.27344 -3.6426 q0 -0.3125 -0.029296875 -0.99609375 t-0.17578 -1.3867 t-0.44922 -1.2305 t-0.84961 -0.52734 q-0.4296875 0 -0.7421875 0.576171875 t-0.54688 1.5625 t-0.39063 2.2949 t-0.25391 2.7734 t-0.14648 3.0078 t-0.068359 2.998 t-0.019531 2.7246 l0 2.207 z M85.46876875 24.668 q0 0.7421875 -0.517578125 1.259765625 t-1.2598 0.51758 t-1.2598 -0.51758 t-0.51758 -1.2598 q0 -0.37109375 0.13671875 -0.693359375 t0.38086 -0.56641 t0.56641 -0.38086 t0.69336 -0.13672 t0.69336 0.13672 t0.56641 0.38086 t0.38086 0.56641 t0.13672 0.69336 z M82.30468875 36.1133 q0 -2.8125 0.3515625 -5.60546875 q0.0390625 -0.2734375 0.244140625 -0.478515625 t0.51758 -0.20508 t0.50781 0.22461 t0.19531 0.51758 q0 0.1171875 -0.0390625 0.703125 l-0.11719 1.3867 q-0.078125 0.8203125 -0.126953125 1.728515625 t-0.048828 1.6699 q0 1.03515625 0.205078125 1.669921875 t0.52734 0.98633 t0.68359 0.46875 t0.69336 0.11719 q0.546875 0 1.1328125 -0.390625 t1.2012 -1.0938 t1.2402 -1.6895 t1.2305 -2.1973 q0.09765625 -0.1953125 0.2734375 -0.302734375 t0.39063 -0.10742 q0.3125 0 0.517578125 0.234375 t0.20508 0.50781 q0 0.1953125 -0.078125 0.33203125 l-0.58594 1.0938 q-0.3515625 0.64453125 -0.80078125 1.328125 t-0.98633 1.3574 t-1.1426 1.2109 t-1.2695 0.86914 t-1.3477 0.33203 q-0.87890625 0 -1.54296875 -0.37109375 t-1.123 -0.99609 t-0.68359 -1.4746 t-0.22461 -1.8262 z M84.37496875 24.668 q0 -0.2734375 -0.205078125 -0.478515625 t-0.47852 -0.20508 t-0.46875 0.20508 t-0.19531 0.47852 t0.19531 0.46875 t0.46875 0.19531 t0.47852 -0.19531 t0.20508 -0.46875 z M93.02730625 37.8516 q0.41015625 0.56640625 1.0546875 0.908203125 t1.5918 0.3418 t1.7285 -0.45898 t1.4258 -1.2012 t1.1523 -1.6602 t0.91797 -1.8359 q0.09765625 -0.21484375 0.2734375 -0.322265625 t0.39063 -0.10742 q0.33203125 0 0.537109375 0.234375 t0.20508 0.50781 q0 0.09765625 -0.01953125 0.166015625 t-0.058594 0.14648 q-1.34765625 2.96875 -2.939453125 4.47265625 t-3.6035 1.543 q-1.2890625 0 -2.2265625 -0.498046875 t-1.543 -1.2891 t-0.89844 -1.7871 t-0.29297 -1.9922 t0.24414 -1.8359 t0.70313 -1.4648 t1.0938 -0.97656 t1.3965 -0.35156 q0.44921875 0 0.888671875 0.185546875 t0.79102 0.52734 t0.56641 0.83008 t0.21484 1.1133 q0 0.80078125 -0.2734375 1.50390625 t-0.75195 1.3086 t-1.1426 1.1133 t-1.4258 0.87891 z M92.44140625 36.582 q0.60546875 -0.25390625 1.103515625 -0.64453125 t0.84961 -0.85938 t0.54688 -0.98633 t0.19531 -1.0449 q0 -0.5859375 -0.29296875 -0.888671875 t-0.68359 -0.30273 q-0.52734375 0 -0.8984375 0.29296875 t-0.60547 0.76172 t-0.3418 1.0449 t-0.10742 1.1426 q0 0.3515625 0.068359375 0.7421875 t0.16602 0.74219 z M103.24215 37.8516 q0.41015625 0.56640625 1.0546875 0.908203125 t1.5918 0.3418 t1.7285 -0.45898 t1.4258 -1.2012 t1.1523 -1.6602 t0.91797 -1.8359 q0.09765625 -0.21484375 0.2734375 -0.322265625 t0.39063 -0.10742 q0.33203125 0 0.537109375 0.234375 t0.20508 0.50781 q0 0.09765625 -0.01953125 0.166015625 t-0.058594 0.14648 q-1.34765625 2.96875 -2.939453125 4.47265625 t-3.6035 1.543 q-1.2890625 0 -2.2265625 -0.498046875 t-1.543 -1.2891 t-0.89844 -1.7871 t-0.29297 -1.9922 t0.24414 -1.8359 t0.70313 -1.4648 t1.0938 -0.97656 t1.3965 -0.35156 q0.44921875 0 0.888671875 0.185546875 t0.79102 0.52734 t0.56641 0.83008 t0.21484 1.1133 q0 0.80078125 -0.2734375 1.50390625 t-0.75195 1.3086 t-1.1426 1.1133 t-1.4258 0.87891 z M102.65625 36.582 q0.60546875 -0.25390625 1.103515625 -0.64453125 t0.84961 -0.85938 t0.54688 -0.98633 t0.19531 -1.0449 q0 -0.5859375 -0.29296875 -0.888671875 t-0.68359 -0.30273 q-0.52734375 0 -0.8984375 0.29296875 t-0.60547 0.76172 t-0.3418 1.0449 t-0.10742 1.1426 q0 0.3515625 0.068359375 0.7421875 t0.16602 0.74219 z"></path>
        </g>
        <g
          id="SvgjsG1008"
          featurekey="sloganFeature-0"
          transform="matrix(1.0593175770835195,0,0,1.0593175770835195,96.87563593703106,110.7034121145824)"
          fill="#7d6574"
        >
          <path d="M14.092 9.961 l2.9102 0 l-3.5156 10.049 l-2.6074 0 l-2.3242 -6.6309 l-2.3438 6.6309 l-2.6465 0 l-3.4473 -10.049 l2.9004 0 l2.0703 6.5332 l2.373 -6.5332 l2.1582 0 l2.3633 6.5137 z M23.242175 20.19531 c-3.1934 0 -5.498 -1.9434 -5.498 -5.2246 c0 -3.2617 2.2852 -5.2051 5.498 -5.2051 c3.2324 0 5.5078 1.9434 5.5078 5.2051 c0 3.2813 -2.2852 5.2246 -5.5078 5.2246 z M23.212875 17.959 c1.6309 0 2.7441 -1.1914 2.7441 -2.9883 s-1.1133 -2.9883 -2.7441 -2.9883 c-1.5723 0 -2.6758 1.1914 -2.6758 2.9883 s1.1035 2.9883 2.6758 2.9883 z M33.535165625 11.5527 c0.50781 -0.88867 1.8262 -1.709 3.2813 -1.709 l0 2.5098 c-2.1289 0 -3.1445 0.625 -3.1445 2.7539 l0 4.8926 l-2.832 0 l0 -10.039 l2.6953 0 l0 1.5918 z M45.12691875 20 l-3.2324 -4.2188 l-0.58594 0 l0 4.2188 l-2.8418 0 l0 -15 l2.8418 0 l0 8.8281 l0.52734 0 l3.1543 -3.8672 l3.1836 0 l-3.9551 4.6582 l4.3262 5.3809 l-3.418 0 z M67.812703125 9.961 l2.9102 0 l-3.5156 10.049 l-2.6074 0 l-2.3242 -6.6309 l-2.3438 6.6309 l-2.6465 0 l-3.4473 -10.049 l2.9004 0 l2.0703 6.5332 l2.373 -6.5332 l2.1582 0 l2.3633 6.5137 z M73.720678125 8.457 c-0.88867 0 -1.6309 -0.72266 -1.6309 -1.6211 c0 -0.88867 0.74219 -1.6113 1.6309 -1.6113 c0.86914 0 1.6113 0.72266 1.6113 1.6113 c0 0.89844 -0.74219 1.6211 -1.6113 1.6211 z M72.285178125 20 l0 -10.039 l2.832 0 l0 10.039 l-2.832 0 z M81.767565625 20 c-1.9531 0 -3.0664 -1.1328 -3.0664 -3.1348 l0 -4.7461 l-1.9727 0 l0 -2.1582 l0.63477 0 c1.0645 0 1.6504 -0.41016 1.6504 -1.9141 l0 -1.3281 l2.5391 0 l0 3.2422 l2.0703 0 l0 2.1582 l-2.0703 0 l0 4.4434 c0 0.89844 0.43945 1.2988 1.1621 1.2988 l0.9082 0 l0 2.1387 l-1.8555 0 z M91.875003125 9.766 c2.2461 0 3.5938 1.25 3.5938 3.7598 l0 6.4746 l-2.8223 0 l0 -6.0156 c0 -1.4746 -0.82031 -1.9629 -1.8262 -1.9629 c-1.0449 0 -2.1875 0.51758 -2.207 2.4414 l0 5.5371 l-2.8125 0 l0 -15 l2.8125 0 l0 6.1621 c0.71289 -0.86914 1.8359 -1.3965 3.2617 -1.3965 z M106.9042625 20.19531 c-2.2559 0 -4.0039 -0.88867 -4.3652 -2.793 l2.3535 -0.66406 c0.30273 1.0742 1.0645 1.4941 2.0117 1.4941 c0.69336 0 1.4453 -0.21484 1.4258 -1.0059 c-0.0097656 -1.0449 -1.5918 -1.1328 -3.1836 -1.6992 c-1.2012 -0.41992 -2.3535 -1.0645 -2.3535 -2.7539 c0 -2.0605 1.709 -3.0078 3.9355 -3.0078 c1.9531 0 3.584 0.74219 3.9746 2.6563 l-2.1777 0.48828 c-0.30273 -0.9375 -0.9668 -1.2695 -1.7871 -1.2695 c-0.74219 0 -1.377 0.26367 -1.377 0.88867 c0 0.79102 1.1621 0.94727 2.4219 1.2891 c1.5527 0.41992 3.252 1.0938 3.252 3.2422 c0 2.3047 -1.9629 3.1348 -4.1309 3.1348 z M116.7968625 20 c-1.9531 0 -3.0664 -1.1328 -3.0664 -3.1348 l0 -4.7461 l-1.9727 0 l0 -2.1582 l0.63477 0 c1.0645 0 1.6504 -0.41016 1.6504 -1.9141 l0 -1.3281 l2.5391 0 l0 3.2422 l2.0703 0 l0 2.1582 l-2.0703 0 l0 4.4434 c0 0.89844 0.43945 1.2988 1.1621 1.2988 l0.9082 0 l0 2.1387 l-1.8555 0 z M127.4023 9.961 l2.8809 0 l-6.1914 14.766 l-2.8516 0 l2.2949 -5.1367 l-4.1309 -9.6289 l3.0664 0 l2.3926 6.6016 z M131.7676 20 l0 -15 l2.8418 0 l0 15 l-2.8418 0 z M146.962453125 14.834 l-0.029297 0.67383 l-7.4414 0 c0.11719 1.6699 1.2305 2.4707 2.5684 2.4707 c1.0059 0 1.7871 -0.46875 2.168 -1.3574 l2.5781 0.38086 c-0.66406 2.0313 -2.4707 3.1934 -4.7266 3.1934 c-3.2422 0 -5.3613 -1.9141 -5.3613 -5.2148 s2.1777 -5.2344 5.2734 -5.2344 c2.8418 0 4.9609 1.5723 4.9707 5.0879 z M142.011753125 11.7383 c-1.2793 0 -2.168 0.5957 -2.4414 1.9336 l4.6094 0 c-0.14648 -1.2793 -1.0156 -1.9336 -2.168 -1.9336 z"></path>
        </g>
      </svg>